<svg width="139" height="20" viewBox="0 0 139 20" fill="none" xmlns="http://www.w3.org/2000/svg">
<path d="M37.8169 15.8197C40.6737 15.8197 42.9775 14.2005 43.7788 11.6109H39.8753C39.4987 12.2748 38.7335 12.6751 37.8169 12.6751C36.5779 12.6751 35.7485 12.0023 35.4931 10.7005H43.9471C43.9982 10.3491 44.0282 10.0077 44.0282 9.66529C44.0282 6.33605 41.487 3.72556 37.8169 3.72556C34.243 3.72556 31.6317 6.28514 31.6317 9.76412C31.6317 13.2311 34.264 15.8197 37.8169 15.8197ZM40.1648 8.53525H35.5612C35.8787 7.4082 36.673 6.78926 37.8169 6.78926C38.9999 6.78926 39.8203 7.40121 40.1648 8.53624V8.53525ZM51.129 15.8187C52.4512 15.8187 53.6332 15.3854 54.5647 14.6327L54.9013 15.4353H57.9333V4.08594H55.0095L54.6088 4.96442C53.6673 4.19076 52.4703 3.74453 51.129 3.74453C47.6473 3.74453 45.1581 6.24521 45.1581 9.76013C45.1581 13.287 47.6473 15.8197 51.129 15.8197V15.8187ZM51.6539 12.3576C50.1845 12.3576 49.1047 11.2516 49.1047 9.76911C49.1047 8.29666 50.1755 7.19057 51.6539 7.19057C53.1224 7.19057 54.2021 8.29666 54.2021 9.76911C54.2021 11.2516 53.1224 12.3576 51.6539 12.3576ZM64.7987 15.8187C67.8238 15.8187 69.8321 14.2673 69.8321 11.8954C69.8321 9.01741 67.4411 8.64506 65.6421 8.32661C64.5603 8.13394 63.6889 7.9832 63.6889 7.33832C63.6889 6.81222 64.1116 6.50176 64.7407 6.50176C65.4518 6.50176 65.9396 6.83818 65.9396 7.56293H69.6127C69.5687 5.2639 67.6895 3.72656 64.7887 3.72656C61.8719 3.72656 59.9267 5.19402 59.9267 7.47009C59.9267 10.2223 62.2675 10.7534 64.0335 11.0379C65.1273 11.2186 65.9887 11.4053 65.9887 12.0602C65.9887 12.6461 65.4448 12.9386 64.8709 12.9386C64.1276 12.9386 63.5487 12.5563 63.5487 11.7267H59.7724C59.8085 14.1855 61.6946 15.8197 64.7987 15.8197V15.8187ZM72.9122 19.67C75.8531 19.67 77.2635 18.4152 78.799 14.9422L83.5709 4.09792H79.3579L77.1052 10.3501L74.6892 4.09792H70.4271L75.1329 14.5099C74.602 15.9215 74.1483 16.3108 72.6488 16.3108H71.569V19.67H72.9122ZM91.447 15.8187C94.9528 15.8187 97.4299 13.308 97.4299 9.78109C97.4299 6.25419 94.9538 3.74353 91.447 3.74353C90.4489 3.73577 89.4686 4.0069 88.6173 4.52618V0H84.7409V15.4473H87.6427L88.0133 14.6048C88.9378 15.3744 90.1188 15.8187 91.447 15.8187ZM90.9231 12.3576C89.4537 12.3576 88.3739 11.2516 88.3739 9.78209C88.3739 8.29866 89.4537 7.19257 90.9231 7.19257C92.3916 7.19257 93.4714 8.29866 93.4714 9.78109C93.4714 11.2516 92.3826 12.3566 90.9231 12.3566V12.3576ZM104.544 15.8187C105.866 15.8187 107.048 15.3854 107.979 14.6327L108.316 15.4353H111.348V4.08594H108.425L108.024 4.96442C107.083 4.19076 105.885 3.74453 104.544 3.74453C101.062 3.74453 98.5739 6.24521 98.5739 9.76013C98.5739 13.287 101.062 15.8197 104.544 15.8197V15.8187ZM105.069 12.3576C103.599 12.3576 102.519 11.2516 102.519 9.76911C102.519 8.29666 103.591 7.19057 105.069 7.19057C106.538 7.19057 107.618 8.29666 107.618 9.76911C107.618 11.2516 106.538 12.3576 105.069 12.3576ZM117.743 15.4473V9.38677C117.743 7.94227 118.446 7.09074 119.669 7.09074C120.657 7.09074 121.154 7.74661 121.154 9.06733V15.4463H125.076V8.52826C125.076 5.63626 123.34 3.76349 120.696 3.76349C119.223 3.76349 117.958 4.32752 117.11 5.26889L116.572 4.09891H113.82V15.4483H117.743V15.4473ZM131.514 15.4473V10.6476L134.366 15.4473H138.99L135.081 9.50757L138.63 4.09792H134.226L131.514 8.54423V0H127.591V15.4473H131.514Z" fill="white"/>
<path fill-rule="evenodd" clip-rule="evenodd" d="M10.82 0L0 19.67H5.99596L16.8169 0H10.82Z" fill="url(#paint0_linear)"/>
<path opacity="0.5" fill-rule="evenodd" clip-rule="evenodd" d="M18.2013 0L7.38031 19.67H13.3763L24.1973 0H18.2013Z" fill="url(#paint1_linear)"/>
<path opacity="0.15" fill-rule="evenodd" clip-rule="evenodd" d="M25.5815 0L14.7615 19.67H20.7575L31.5775 0H25.5815Z" fill="url(#paint2_linear)"/>
<defs>
<linearGradient id="paint0_linear" x1="12.141" y1="-7.12738e-07" x2="0.541069" y2="18.1332" gradientUnits="userSpaceOnUse">
<stop stop-color="#33D35E"/>
<stop offset="1" stop-color="#2AB6D9"/>
</linearGradient>
<linearGradient id="paint1_linear" x1="19.5213" y1="-7.12738e-07" x2="7.92138" y2="18.1332" gradientUnits="userSpaceOnUse">
<stop stop-color="#33D35E"/>
<stop offset="1" stop-color="#2AB6D9"/>
</linearGradient>
<linearGradient id="paint2_linear" x1="26.9018" y1="-7.12738e-07" x2="15.3016" y2="18.1325" gradientUnits="userSpaceOnUse">
<stop stop-color="#33D35E"/>
<stop offset="1" stop-color="#2AB6D9"/>
</linearGradient>
</defs>
</svg>
